<?xml version="1.0" encoding="UTF-8" standalone="no"?>
<svg
   xmlns:dc="http://purl.org/dc/elements/1.1/"
   xmlns:cc="http://creativecommons.org/ns#"
   xmlns:rdf="http://www.w3.org/1999/02/22-rdf-syntax-ns#"
   xmlns:svg="http://www.w3.org/2000/svg"
   xmlns="http://www.w3.org/2000/svg"
   id="svg8"
   version="1.1"
   viewBox="0 0 210 297"
   height="297mm"
   width="210mm">
  <defs
     id="defs2" />
  <metadata
     id="metadata5">
    <rdf:RDF>
      <cc:Work
         rdf:about="">
        <dc:format>image/svg+xml</dc:format>
        <dc:type
           rdf:resource="http://purl.org/dc/dcmitype/StillImage" />
        <dc:title></dc:title>
      </cc:Work>
    </rdf:RDF>
  </metadata>
  <g
     id="layer1">
    <g
       id="g4547">
      <path
         style="fill:none;stroke:#ff6600;stroke-width:0.92949396;stroke-miterlimit:4;stroke-dasharray:none;stroke-opacity:1"
         d="m 32.778766,25.735257 h 81.590584 l -9.81153,38.758006 H 22.96724 Z"
         id="rect10" />
      <g
         aria-label="HERNAN"
         style="font-style:normal;font-weight:normal;font-size:10.58333302px;line-height:1.25;font-family:sans-serif;letter-spacing:0px;word-spacing:0px;fill:#000000;fill-opacity:1;stroke:none;stroke-width:0.26458332"
         id="text4490">
        <path
           d="m 52.290369,40.410507 h -1.984375 v -3.389974 h -2.930053 v 3.389974 h -1.984375 v -7.69462 h 1.984375 v 2.816365 h 2.930053 v -2.816365 h 1.984375 z"
           style="font-style:normal;font-variant:normal;font-weight:bold;font-stretch:normal;font-family:sans-serif;-inkscape-font-specification:'sans-serif Bold';stroke-width:0.26458332"
           id="path4516" />
        <path
           d="m 59.824793,40.410507 h -5.565551 v -7.69462 h 5.565551 v 1.488281 h -3.591512 v 1.328084 h 3.33313 v 1.488281 h -3.33313 v 1.901693 h 3.591512 z"
           style="font-style:normal;font-variant:normal;font-weight:bold;font-stretch:normal;font-family:sans-serif;-inkscape-font-specification:'sans-serif Bold';stroke-width:0.26458332"
           id="path4518" />
        <path
           d="m 65.808923,35.072332 q 0,-0.289388 -0.118856,-0.496094 -0.118856,-0.206706 -0.408244,-0.325561 -0.201538,-0.08268 -0.470255,-0.09819 -0.268718,-0.02067 -0.625285,-0.02067 h -0.718302 v 2.072225 h 0.609781 q 0.475424,0 0.795818,-0.04651 0.320393,-0.04651 0.537434,-0.211873 0.206706,-0.160197 0.299724,-0.3514 0.09818,-0.196371 0.09818,-0.521932 z m 3.095418,5.338175 h -2.423624 l -2.098064,-2.821533 h -0.914672 v 2.821533 h -1.97404 v -7.69462 h 3.327962 q 0.682129,0 1.173055,0.07751 0.490926,0.07751 0.919841,0.335897 0.434082,0.258382 0.687296,0.671794 0.258382,0.408244 0.258382,1.028361 0,0.852661 -0.397908,1.390096 -0.392741,0.537435 -1.126546,0.894002 z"
           style="font-style:normal;font-variant:normal;font-weight:bold;font-stretch:normal;font-family:sans-serif;-inkscape-font-specification:'sans-serif Bold';stroke-width:0.26458332"
           id="path4520" />
        <path
           d="m 76.77983,40.410507 h -1.912028 l -3.26595,-5.281331 v 5.281331 h -1.819011 v -7.69462 h 2.371949 l 2.80603,4.407999 v -4.407999 h 1.81901 z"
           style="font-style:normal;font-variant:normal;font-weight:bold;font-stretch:normal;font-family:sans-serif;-inkscape-font-specification:'sans-serif Bold';stroke-width:0.26458332"
           id="path4522" />
        <path
           d="m 85.864547,40.410507 h -2.051554 l -0.532267,-1.55546 h -2.852539 l -0.532267,1.55546 h -1.999878 l 2.842204,-7.69462 h 2.284098 z M 82.800135,37.44428 81.854456,34.684759 80.908778,37.44428 Z"
           style="font-style:normal;font-variant:normal;font-weight:bold;font-stretch:normal;font-family:sans-serif;-inkscape-font-specification:'sans-serif Bold';stroke-width:0.26458332"
           id="path4524" />
        <path
           d="m 93.977746,40.410507 h -1.912028 l -3.26595,-5.281331 v 5.281331 h -1.819011 v -7.69462 h 2.371949 l 2.80603,4.407999 v -4.407999 h 1.81901 z"
           style="font-style:normal;font-variant:normal;font-weight:bold;font-stretch:normal;font-family:sans-serif;-inkscape-font-specification:'sans-serif Bold';stroke-width:0.26458332"
           id="path4526" />
      </g>
      <g
         aria-label="PROVOSTE"
         style="font-style:normal;font-weight:normal;font-size:10.58333302px;line-height:1.25;font-family:sans-serif;letter-spacing:0px;word-spacing:0px;fill:#000000;fill-opacity:1;stroke:none;stroke-width:0.26458332"
         id="text4494">
        <path
           d="m 53.532377,46.720026 q 0,0.341065 -0.120578,0.633898 -0.117134,0.289388 -0.33073,0.502984 -0.265272,0.265272 -0.627007,0.399631 -0.361735,0.130914 -0.91295,0.130914 h -0.682129 v 1.912027 h -0.682129 v -5.129747 h 1.391819 q 0.461642,0 0.782036,0.07924 0.320394,0.07579 0.568441,0.241156 0.292833,0.196371 0.451307,0.489204 0.16192,0.292833 0.16192,0.740695 z m -0.70969,0.01723 q 0,-0.265273 -0.09302,-0.461643 -0.09302,-0.19637 -0.282498,-0.320394 -0.165365,-0.106798 -0.378961,-0.151584 -0.21015,-0.04823 -0.533989,-0.04823 h -0.675239 v 2.049831 h 0.575331 q 0.413411,0 0.671793,-0.07235 0.258383,-0.07579 0.420302,-0.237711 0.16192,-0.165365 0.227376,-0.347955 0.0689,-0.18259 0.0689,-0.409966 z"
           style="font-style:normal;font-variant:normal;font-weight:normal;font-stretch:normal;font-size:7.05555534px;font-family:sans-serif;-inkscape-font-specification:sans-serif;stroke-width:0.26458332"
           id="path4499" />
        <path
           d="M 58.679349,50.29948 H 57.79396 l -1.715658,-2.039496 h -0.961181 v 2.039496 h -0.682129 v -5.129747 h 1.436604 q 0.465088,0 0.775147,0.06201 0.310059,0.05857 0.558105,0.213596 0.279053,0.1757 0.434082,0.444417 0.158475,0.265273 0.158475,0.675239 0,0.55466 -0.279053,0.930176 -0.279053,0.37207 -0.768256,0.56155 z M 57.08427,46.613228 q 0,-0.220486 -0.07924,-0.389295 -0.07579,-0.172255 -0.254937,-0.289388 -0.148139,-0.09991 -0.3514,-0.137804 -0.203261,-0.04134 -0.478868,-0.04134 h -0.802707 v 1.936143 h 0.689019 q 0.323839,0 0.564995,-0.05512 0.241157,-0.05857 0.409967,-0.213596 0.155029,-0.144694 0.227376,-0.330729 0.07579,-0.189481 0.07579,-0.478869 z"
           style="font-style:normal;font-variant:normal;font-weight:normal;font-stretch:normal;font-size:7.05555534px;font-family:sans-serif;-inkscape-font-specification:sans-serif;stroke-width:0.26458332"
           id="path4501" />
        <path
           d="m 63.164864,45.758845 q 0.313503,0.344509 0.478868,0.844048 0.16881,0.499539 0.16881,1.133436 0,0.633898 -0.172255,1.136882 -0.16881,0.499539 -0.475423,0.833713 -0.316949,0.347955 -0.751031,0.523655 -0.430637,0.175699 -0.985297,0.175699 -0.54088,0 -0.985298,-0.179145 -0.440972,-0.179145 -0.75103,-0.520209 -0.310059,-0.341064 -0.478869,-0.837158 -0.165364,-0.496094 -0.165364,-1.133437 0,-0.627007 0.165364,-1.123101 0.165365,-0.499538 0.482314,-0.854383 0.303168,-0.33762 0.75103,-0.516765 0.451308,-0.179145 0.981853,-0.179145 0.551215,0 0.988742,0.182591 0.440972,0.179144 0.747586,0.513319 z m -0.06201,1.977484 q 0,-0.999077 -0.447862,-1.539957 -0.447863,-0.544325 -1.223009,-0.544325 -0.782037,0 -1.229899,0.544325 -0.444418,0.54088 -0.444418,1.539957 0,1.009413 0.454753,1.546848 0.454753,0.53399 1.219564,0.53399 0.764811,0 1.216118,-0.53399 0.454753,-0.537435 0.454753,-1.546848 z"
           style="font-style:normal;font-variant:normal;font-weight:normal;font-stretch:normal;font-size:7.05555534px;font-family:sans-serif;-inkscape-font-specification:sans-serif;stroke-width:0.26458332"
           id="path4503" />
        <path
           d="m 68.938843,45.169733 -1.867241,5.129747 h -0.909506 l -1.867241,-5.129747 h 0.73036 l 1.608859,4.513075 1.60886,-4.513075 z"
           style="font-style:normal;font-variant:normal;font-weight:normal;font-stretch:normal;font-size:7.05555534px;font-family:sans-serif;-inkscape-font-specification:sans-serif;stroke-width:0.26458332"
           id="path4505" />
        <path
           d="m 73.541491,45.758845 q 0.313503,0.344509 0.478868,0.844048 0.16881,0.499539 0.16881,1.133436 0,0.633898 -0.172255,1.136882 -0.16881,0.499539 -0.475423,0.833713 -0.316949,0.347955 -0.751031,0.523655 -0.430637,0.175699 -0.985297,0.175699 -0.54088,0 -0.985298,-0.179145 -0.440972,-0.179145 -0.751031,-0.520209 -0.310058,-0.341064 -0.478868,-0.837158 -0.165364,-0.496094 -0.165364,-1.133437 0,-0.627007 0.165364,-1.123101 0.165365,-0.499538 0.482314,-0.854383 0.303168,-0.33762 0.75103,-0.516765 0.451308,-0.179145 0.981853,-0.179145 0.551215,0 0.988742,0.182591 0.440972,0.179144 0.747586,0.513319 z m -0.06201,1.977484 q 0,-0.999077 -0.447862,-1.539957 -0.447863,-0.544325 -1.223009,-0.544325 -0.782037,0 -1.229899,0.544325 -0.444418,0.54088 -0.444418,1.539957 0,1.009413 0.454753,1.546848 0.454752,0.53399 1.219564,0.53399 0.764811,0 1.216118,-0.53399 0.454753,-0.537435 0.454753,-1.546848 z"
           style="font-style:normal;font-variant:normal;font-weight:normal;font-stretch:normal;font-size:7.05555534px;font-family:sans-serif;-inkscape-font-specification:sans-serif;stroke-width:0.26458332"
           id="path4507" />
        <path
           d="m 78.998521,48.835315 q 0,0.299723 -0.141248,0.592556 -0.137804,0.292833 -0.389296,0.496094 -0.275608,0.220486 -0.644233,0.34451 -0.36518,0.124023 -0.881944,0.124023 -0.554661,0 -0.999078,-0.103353 -0.440972,-0.103353 -0.89917,-0.306613 v -0.854384 h 0.04823 q 0.389296,0.323839 0.89917,0.499539 0.509874,0.1757 0.957737,0.1757 0.633897,0 0.985297,-0.237712 0.354845,-0.237711 0.354845,-0.633897 0,-0.341065 -0.16881,-0.502984 -0.165364,-0.16192 -0.506429,-0.251492 -0.258382,-0.0689 -0.56155,-0.113688 -0.299724,-0.04479 -0.637343,-0.113689 -0.682129,-0.144694 -1.012858,-0.492648 -0.327284,-0.3514 -0.327284,-0.912951 0,-0.644232 0.544325,-1.054199 0.544325,-0.413411 1.381483,-0.413411 0.54088,0 0.992188,0.103353 0.451307,0.103353 0.799262,0.254937 v 0.806152 h -0.04823 q -0.292833,-0.248047 -0.771701,-0.409966 -0.475423,-0.165365 -0.974962,-0.165365 -0.54777,0 -0.881944,0.227376 -0.33073,0.227377 -0.33073,0.585667 0,0.320394 0.165365,0.502984 0.165365,0.18259 0.582221,0.279052 0.220486,0.04823 0.627008,0.117134 0.406521,0.0689 0.689019,0.141248 0.571885,0.151585 0.861273,0.458198 0.289388,0.306614 0.289388,0.857829 z"
           style="font-style:normal;font-variant:normal;font-weight:normal;font-stretch:normal;font-size:7.05555534px;font-family:sans-serif;-inkscape-font-specification:sans-serif;stroke-width:0.26458332"
           id="path4509" />
        <path
           d="m 83.752753,45.77607 h -1.832791 v 4.52341 h -0.682129 v -4.52341 h -1.83279 v -0.606337 h 4.34771 z"
           style="font-style:normal;font-variant:normal;font-weight:normal;font-stretch:normal;font-size:7.05555534px;font-family:sans-serif;-inkscape-font-specification:sans-serif;stroke-width:0.26458332"
           id="path4511" />
        <path
           d="m 87.828301,50.29948 h -3.379638 v -5.129747 h 3.379638 v 0.606337 h -2.697509 v 1.405599 h 2.697509 v 0.606337 h -2.697509 v 1.905138 h 2.697509 z"
           style="font-style:normal;font-variant:normal;font-weight:normal;font-stretch:normal;font-size:7.05555534px;font-family:sans-serif;-inkscape-font-specification:sans-serif;stroke-width:0.26458332"
           id="path4513" />
      </g>
      <path
         style="fill:none;stroke:#c83737;stroke-width:0.96499997;stroke-miterlimit:4;stroke-dasharray:none;stroke-opacity:1"
         d="m 41.17025,53.773983 h 52.117557 v 1.069078 H 41.17025 Z"
         id="rect4496" />
    </g>
  </g>
</svg>
